<svg xmlns="http://www.w3.org/2000/svg" width="24" height="24" viewBox="0 0 24 24" fill="none" stroke="currentColor" stroke-width="2" stroke-linecap="round" stroke-linejoin="round">
  <path d="M12 2a2 2 0 0 1 2 2c0 .74-.4 1.39-1 1.73V7h4a2 2 0 0 1 2 2v1.28c.6.35 1 .98 1 1.72 0 .74-.4 1.38-1 1.72V15a2 2 0 0 1-2 2h-4v1.27c.6.35 1 .98 1 1.73a2 2 0 1 1-4 0c0-.75.4-1.38 1-1.73V17H7a2 2 0 0 1-2-2v-1.28c-.6-.35-1-.98-1-1.72 0-.74.4-1.37 1-1.72V9a2 2 0 0 1 2-2h4V5.73c-.6-.35-1-.99-1-1.73a2 2 0 0 1 2-2Z"/>
</svg>